<svg width="300" height="433" viewBox="0 0 300 433" fill="none" xmlns="http://www.w3.org/2000/svg">
<path d="M137.057 53.0254C138.558 31.625 168.349 36.3327 174.144 47.1338C179.938 57.9347 179.25 85.3324 171.761 87.2637C168.774 88.0336 162.411 86.1452 155.935 82.2412L160 111H136L144.263 72.4873C139.655 67.0788 136.536 60.4522 137.057 53.0254Z" fill="#B28B67"/>
<path fill-rule="evenodd" clip-rule="evenodd" d="M160.464 34.6853C157.301 34.1665 148.784 33.8099 147.213 33.8101C146.21 33.8101 145.122 34.0394 144.527 33.1178C144.041 32.3631 144.219 31.0867 144.074 30.2109C143.905 29.1935 143.665 28.1892 143.423 27.1874C142.733 24.3369 141.69 21.625 140.231 19.0788C137.493 14.3019 133.481 10.5601 128.417 8.38278C122.824 5.97866 116.496 5.42817 110.48 5.91581C104.043 6.43752 98.2159 8.56259 92.138 10.5624C86.346 12.4681 80.2796 13.2182 74.2219 12.2876C68.1185 11.35 63.5068 8.04203 58.3587 4.90232C53.0885 1.68801 47.0657 -0.414264 40.8354 0.0689985C35.0196 0.520259 29.6594 2.92161 24.8503 6.12947C20.3509 9.13081 16.6383 12.7418 14.5422 17.824C12.2873 23.2909 12.2894 29.2918 15.9974 34.1233C21.3721 41.1265 31.3499 42.9376 39.651 42.7575C44.4525 42.6537 49.1682 41.7772 53.7014 40.1828C59.7469 38.0564 64.9712 34.4523 70.627 31.528C73.2813 30.1558 76.0248 29.0288 78.9006 28.217C81.6912 27.4289 84.4398 27.0675 86.9665 28.7533C89.6393 30.5367 92.0344 32.2885 95.0922 33.4049C98.0256 34.476 101.133 35.075 104.258 35.0509C110.339 35.0039 116.333 33.1093 122.239 31.8402C127.054 30.8056 132.207 29.7743 137.117 30.769C139.166 31.1841 142.159 32.041 142.899 34.1702C130.444 36.4274 125.553 51.8302 129.064 63.1372C130.959 69.24 142.35 76.3742 146.779 73.1658C149.585 71.1333 147.881 68.4648 146.779 66.7033C144.668 63.3299 143.945 58.9967 147.852 56.648C151.222 54.6224 154.765 59.4327 154.832 59.4274C155.758 59.3544 163.76 54.8285 169.274 48.2241C174.713 48.5466 175.539 44.96 174.24 42.0269C172.941 39.0938 164.834 35.4024 160.464 34.6853Z" fill="#191847"/>
<path fill-rule="evenodd" clip-rule="evenodd" d="M116.644 193.999C118.447 218.609 234.606 291.063 235.284 293.096C235.736 294.451 199.128 378.777 199.128 378.777L209.282 382.723C209.282 382.723 265.432 293.415 262.548 283.899C258.419 270.275 172.422 194.261 172.422 194.261L116.644 193.999Z" fill="#B28B67"/>
<path fill-rule="evenodd" clip-rule="evenodd" d="M201.8 366.082L218.379 372.117C253.336 332.675 267.038 300.131 264.54 283.55C262.042 266.968 174.724 194.061 174.724 194.061L115.455 194.061C117.477 251.053 225.143 293.314 226.583 295.742C228.023 298.171 213.851 321.957 201.8 366.082Z" fill="#D7D7D7"/>
<path fill-rule="evenodd" clip-rule="evenodd" d="M198.379 376.735C197.533 375.926 196.173 375.939 195.421 376.836C194.051 378.474 192.103 380.969 191.522 382.563C190.597 385.105 189.669 390.29 189.669 390.29C192.618 391.363 242.67 409.58 242.67 409.58C242.67 409.58 247.222 403.502 242.969 401.338C238.716 399.173 235.931 397.663 235.931 397.663L215.294 377.715C214.889 377.323 214.241 377.343 213.861 377.759L210.88 381.024C210.88 381.024 206.059 381.447 203.483 380.509C201.915 379.938 199.796 378.092 198.379 376.735Z" fill="#E4E4E4"/>
<path fill-rule="evenodd" clip-rule="evenodd" d="M130 194L78.2537 318.227L27.3955 423.25H39.3946L170.673 194H130Z" fill="#997659"/>
<path fill-rule="evenodd" clip-rule="evenodd" d="M29.4496 417.284C28.3779 416.813 27.1043 417.29 26.7051 418.391C25.977 420.398 25 423.409 25 425.106C25 427.811 25.9012 433 25.9012 433C29.0392 433 82.3031 433 82.3031 433C82.3031 433 84.5016 425.732 79.7648 425.152C75.0281 424.573 71.895 424.106 71.895 424.106L45.68 412.419C45.1654 412.189 44.563 412.43 44.3483 412.951L42.6632 417.039C42.6632 417.039 38.2782 419.085 35.5367 419.085C33.8677 419.085 31.2457 418.074 29.4496 417.284Z" fill="#E4E4E4"/>
<path fill-rule="evenodd" clip-rule="evenodd" d="M31.9883 401.433L58.6504 406.433C79.2655 376.125 165.54 251.852 175 194H115.644C84.0546 235.821 51.6387 370.624 31.9883 401.433Z" fill="#E2E2DE"/>
<path d="M94 175.065C73.3921 213.471 62.3401 233.826 60.8447 236.13C57.4802 241.315 60.6197 250.817 61.7793 255.821C54.5044 257.515 57.3732 246.564 48.167 248.851C39.764 250.937 32.6392 256.293 24.8037 249.07C23.8404 248.182 23.1356 245.407 26.4199 243.983C34.6027 240.437 46.6921 233.796 48.6523 231.218C51.3256 227.702 59.6106 207.629 73.5078 171L94 175.065ZM274.622 136.281C276.39 135.719 279.41 135.549 276.188 140.255C272.967 144.961 269.789 150.056 271.076 151.705C272.364 153.354 276.093 151.534 277.566 154.216C278.549 156.004 272.262 158.143 258.707 160.633L231.569 181.439L220 166.617L256.234 150.704C262.582 144.379 268.711 139.571 274.622 136.281Z" fill="#B28B67"/>
<path fill-rule="evenodd" clip-rule="evenodd" d="M149.695 94.3321L158.342 92.8489C177.177 111.119 184.862 155.012 197.414 160.823C209.281 166.316 226.104 161 246.1 153.823L252.224 167.505C234.055 187.161 195.349 203.767 179.66 194.287C154.577 179.13 148.786 124.994 149.695 94.3321Z" fill="#506654"/>
<path fill-rule="evenodd" clip-rule="evenodd" d="M112 203C112 203 164.008 203 188.511 203C192.008 203 191.349 197.952 190.843 195.404C185.011 166.004 162.241 134.312 162.241 92.4607L140.172 89C121.917 118.358 115.605 154.505 112 203Z" fill="#DDE3E9"/>
<path d="M147.486 89C147.486 89 177.205 190.305 163.872 224H95C96.0901 207.556 99.5884 190.167 104.377 173.212C88.7748 201.357 75.6631 221.621 65.0371 234L49 230.858C59.3307 166.79 89.2467 119.504 138.748 89H147.486Z" fill="#5B745F"/>
</svg>
